<?xml version="1.0" encoding="utf-8"?>
<!-- Generator: Adobe Illustrator 16.0.0, SVG Export Plug-In . SVG Version: 6.00 Build 0)  -->
<!DOCTYPE svg PUBLIC "-//W3C//DTD SVG 1.1//EN" "http://www.w3.org/Graphics/SVG/1.1/DTD/svg11.dtd">
<svg version="1.1" id="Livello_1" xmlns="http://www.w3.org/2000/svg" xmlns:xlink="http://www.w3.org/1999/xlink" x="0px" y="0px"
	 width="744.094px" height="1052.363px" viewBox="794 0 744.094 1052.363" enable-background="new 794 0 744.094 1052.363"
	 xml:space="preserve">
<title>edited red arrow</title>
<g>
	<title>Layer 1</title>
	<g id="use1503">
		<path id="rect899" fill="#FF0000" stroke="#FFFFFF" stroke-width="15" stroke-linecap="round" stroke-linejoin="round" d="
			M513,473.84L394.44,497.252l25-240.344H261.502l25,240.344L175.282,473.84l165.189,234.662L513,473.84z"/>
	</g>
	<path id="rect899_1_" fill="#FF0000" stroke="#FFFFFF" stroke-width="15" stroke-linecap="round" stroke-linejoin="round" d="
		M523,463.84L404.44,487.252l25-240.344H271.502l25,240.344L185.282,463.84l165.189,234.663L523,463.84z"/>
</g>
<g>
	<title>Layer 1</title>
	<g id="use1503_1_">
		<path id="rect899_3_" fill="#36CB5B" stroke="#FFFFFF" stroke-width="15" stroke-linecap="round" stroke-linejoin="round" d="
			M979.282,481.57l118.561-23.412l-25,240.344h157.938l-25-240.344L1317,481.57l-165.189-234.662L979.282,481.57z"/>
	</g>
	<path id="rect899_2_" fill="#36CB5B" stroke="#FFFFFF" stroke-width="15" stroke-linecap="round" stroke-linejoin="round" d="
		M969.282,491.57l118.561-23.412l-25,240.344h157.938l-25-240.344L1307,491.57l-165.189-234.662L969.282,491.57z"/>
</g>
</svg>
